<svg xmlns="http://www.w3.org/2000/svg" width="1160" height="460" viewBox="0 0 1160 460"><rect width="1160" height="460" fill="#FFFFFF"/><rect x="0" y="0" width="190" height="460" rx="8" fill="#1A1A24"/><rect x="970" y="0" width="190" height="460" rx="8" fill="#1A1A24"/><g transform="translate(14 14) scale(1)" style="color:#FFFFFF;--icon-accent:#FFE600"><rect x="5" y="7" width="15" height="18" rx="2" fill="none" stroke="currentColor" stroke-width="2" stroke-linecap="round" stroke-linejoin="round"/><path d="M12 3v4M8 25v4M17 25v4" fill="none" stroke="currentColor" stroke-width="2" stroke-linecap="round" stroke-linejoin="round"/><path d="M22 10l7 3v5c0 5-3 8-7 10-4-2-7-5-7-10v-5z" fill="none" stroke="var(--icon-accent,currentColor)" stroke-width="2" stroke-linecap="round" stroke-linejoin="round"/></g><text x="54" y="27" font-family="Arial,Helvetica,sans-serif" font-size="17" font-weight="700" fill="#FFFFFF" text-anchor="start">Cybersecurity &amp;</text><text x="54" y="47" font-family="Arial,Helvetica,sans-serif" font-size="17" font-weight="700" fill="#FFFFFF" text-anchor="start">resilience</text><g transform="translate(14 67) scale(0.625)" style="color:#FFFFFF;--icon-accent:#FFE600"><rect x="3" y="5" width="10" height="22" rx="1" fill="none" stroke="currentColor" stroke-width="2" stroke-linecap="round" stroke-linejoin="round"/><rect x="19" y="5" width="10" height="22" rx="1" fill="none" stroke="currentColor" stroke-width="2" stroke-linecap="round" stroke-linejoin="round"/><path d="M13 9h6M13 16h6M13 23h6" fill="none" stroke="var(--icon-accent,currentColor)" stroke-width="2" stroke-linecap="round" stroke-linejoin="round"/></g><text x="44" y="83" font-family="Arial,Helvetica,sans-serif" font-size="13.5" font-weight="600" fill="#FFFFFF" text-anchor="start">Network</text><text x="44" y="98" font-family="Arial,Helvetica,sans-serif" font-size="13.5" font-weight="600" fill="#FFFFFF" text-anchor="start">segmentation</text><g transform="translate(14 110) scale(0.625)" style="color:#FFFFFF;--icon-accent:#FFE600"><path d="M4 8h24v17H4zM4 14h24M4 20h24M10 8v6M21 8v6M15 14v6M8 20v5M23 20v5" fill="none" stroke="currentColor" stroke-width="2" stroke-linecap="round" stroke-linejoin="round"/><path d="M16 4v4" fill="none" stroke="var(--icon-accent,currentColor)" stroke-width="2" stroke-linecap="round" stroke-linejoin="round"/></g><text x="44" y="126" font-family="Arial,Helvetica,sans-serif" font-size="13.5" font-weight="600" fill="#FFFFFF" text-anchor="start">Firewalls / DMZ</text><g transform="translate(14 153) scale(0.625)" style="color:#FFFFFF;--icon-accent:#FFE600"><rect x="4" y="5" width="18" height="22" rx="2" fill="none" stroke="currentColor" stroke-width="2" stroke-linecap="round" stroke-linejoin="round"/><path d="M9 11h8M9 16h8" fill="none" stroke="currentColor" stroke-width="2" stroke-linecap="round" stroke-linejoin="round"/><path d="M20 19a5 5 0 0110 0v8H20zM23 19v-2a2 2 0 014 0v2" fill="none" stroke="var(--icon-accent,currentColor)" stroke-width="2" stroke-linecap="round" stroke-linejoin="round"/></g><text x="44" y="169" font-family="Arial,Helvetica,sans-serif" font-size="13.5" font-weight="600" fill="#FFFFFF" text-anchor="start">Encryption / PKI</text><g transform="translate(14 196) scale(0.625)" style="color:#FFFFFF;--icon-accent:#FFE600"><circle cx="11" cy="10" r="4" fill="none" stroke="currentColor" stroke-width="2" stroke-linecap="round" stroke-linejoin="round"/><path d="M4 23c1-7 13-7 14 0" fill="none" stroke="currentColor" stroke-width="2" stroke-linecap="round" stroke-linejoin="round"/><rect x="19" y="12" width="10" height="13" rx="2" fill="none" stroke="var(--icon-accent,currentColor)" stroke-width="2" stroke-linecap="round" stroke-linejoin="round"/><path d="M22 18l2 2 4-5" fill="none" stroke="var(--icon-accent,currentColor)" stroke-width="2" stroke-linecap="round" stroke-linejoin="round"/></g><text x="44" y="212" font-family="Arial,Helvetica,sans-serif" font-size="13.5" font-weight="600" fill="#FFFFFF" text-anchor="start">IAM / MFA</text><g transform="translate(14 239) scale(0.625)" style="color:#FFFFFF;--icon-accent:#FFE600"><rect x="5" y="7" width="15" height="18" rx="2" fill="none" stroke="currentColor" stroke-width="2" stroke-linecap="round" stroke-linejoin="round"/><path d="M12 3v4M8 25v4M17 25v4" fill="none" stroke="currentColor" stroke-width="2" stroke-linecap="round" stroke-linejoin="round"/><path d="M22 10l7 3v5c0 5-3 8-7 10-4-2-7-5-7-10v-5z" fill="none" stroke="var(--icon-accent,currentColor)" stroke-width="2" stroke-linecap="round" stroke-linejoin="round"/></g><text x="44" y="255" font-family="Arial,Helvetica,sans-serif" font-size="13.5" font-weight="600" fill="#FFFFFF" text-anchor="start">Device hardening</text><g transform="translate(14 282) scale(0.625)" style="color:#FFFFFF;--icon-accent:#FFE600"><rect x="5" y="5" width="22" height="22" rx="3" fill="none" stroke="currentColor" stroke-width="2" stroke-linecap="round" stroke-linejoin="round"/><path d="M11 16h10M16 11v10" fill="none" stroke="var(--icon-accent,currentColor)" stroke-width="2" stroke-linecap="round" stroke-linejoin="round"/><path d="M8 2v3M24 2v3M8 27v3M24 27v3" fill="none" stroke="currentColor" stroke-width="2" stroke-linecap="round" stroke-linejoin="round"/></g><text x="44" y="298" font-family="Arial,Helvetica,sans-serif" font-size="13.5" font-weight="600" fill="#FFFFFF" text-anchor="start">Patch management</text><g transform="translate(14 325) scale(0.625)" style="color:#FFFFFF;--icon-accent:#FFE600"><rect x="4" y="5" width="24" height="17" rx="2" fill="none" stroke="currentColor" stroke-width="2" stroke-linecap="round" stroke-linejoin="round"/><line x1="10" y1="27" x2="22" y2="27" fill="none" stroke="currentColor" stroke-width="2" stroke-linecap="round" stroke-linejoin="round"/><line x1="16" y1="22" x2="16" y2="27" fill="none" stroke="currentColor" stroke-width="2" stroke-linecap="round" stroke-linejoin="round"/><path d="M8 16l4-4 4 3 4-6 4 3" fill="none" stroke="var(--icon-accent,currentColor)" stroke-width="2" stroke-linecap="round" stroke-linejoin="round"/><path d="M8 19h16" fill="none" stroke="currentColor" stroke-width="2" stroke-linecap="round" stroke-linejoin="round"/></g><text x="44" y="341" font-family="Arial,Helvetica,sans-serif" font-size="13.5" font-weight="600" fill="#FFFFFF" text-anchor="start">Logging / SIEM</text><g transform="translate(14 368) scale(0.625)" style="color:#FFFFFF;--icon-accent:#FFE600"><path d="M6 8c0-3 20-3 20 0v16c0 3-20 3-20 0zM6 8c0 3 20 3 20 0M6 16c0 3 20 3 20 0" fill="none" stroke="currentColor" stroke-width="2" stroke-linecap="round" stroke-linejoin="round"/><path d="M10 12a8 8 0 0113 2M23 14v-5M23 14h-5M22 21a8 8 0 01-13-2M9 19v5M9 19h5" fill="none" stroke="var(--icon-accent,currentColor)" stroke-width="2" stroke-linecap="round" stroke-linejoin="round"/></g><text x="44" y="384" font-family="Arial,Helvetica,sans-serif" font-size="13.5" font-weight="600" fill="#FFFFFF" text-anchor="start">Backup / disaster</text><text x="44" y="399" font-family="Arial,Helvetica,sans-serif" font-size="13.5" font-weight="600" fill="#FFFFFF" text-anchor="start">recovery</text><g transform="translate(984 14) scale(1)" style="color:#FFFFFF;--icon-accent:#FFE600"><circle cx="16" cy="16" r="5" fill="none" stroke="var(--icon-accent,currentColor)" stroke-width="2" stroke-linecap="round" stroke-linejoin="round"/><circle cx="5" cy="7" r="3" fill="none" stroke="currentColor" stroke-width="2" stroke-linecap="round" stroke-linejoin="round"/><circle cx="27" cy="7" r="3" fill="none" stroke="currentColor" stroke-width="2" stroke-linecap="round" stroke-linejoin="round"/><circle cx="5" cy="25" r="3" fill="none" stroke="currentColor" stroke-width="2" stroke-linecap="round" stroke-linejoin="round"/><circle cx="27" cy="25" r="3" fill="none" stroke="currentColor" stroke-width="2" stroke-linecap="round" stroke-linejoin="round"/><path d="M8 9l5 4M24 9l-5 4M8 23l5-4M24 23l-5-4" fill="none" stroke="currentColor" stroke-width="2" stroke-linecap="round" stroke-linejoin="round"/></g><text x="1024" y="27" font-family="Arial,Helvetica,sans-serif" font-size="14" font-weight="700" fill="#FFFFFF" text-anchor="start">Enterprise &amp;</text><text x="1024" y="45" font-family="Arial,Helvetica,sans-serif" font-size="14" font-weight="700" fill="#FFFFFF" text-anchor="start">external integration</text><text x="984" y="66" font-family="Arial,Helvetica,sans-serif" font-size="10" font-weight="700" fill="#FFE600" text-anchor="start">PLANT / ENTERPRISE</text><g transform="translate(984 73) scale(0.59375)" style="color:#FFFFFF;--icon-accent:#FFE600"><rect x="4" y="5" width="24" height="17" rx="2" fill="none" stroke="currentColor" stroke-width="2" stroke-linecap="round" stroke-linejoin="round"/><line x1="10" y1="27" x2="22" y2="27" fill="none" stroke="currentColor" stroke-width="2" stroke-linecap="round" stroke-linejoin="round"/><line x1="16" y1="22" x2="16" y2="27" fill="none" stroke="currentColor" stroke-width="2" stroke-linecap="round" stroke-linejoin="round"/><path d="M8 18v-5h5v-3h5v6h6" fill="none" stroke="var(--icon-accent,currentColor)" stroke-width="2" stroke-linecap="round" stroke-linejoin="round"/></g><text x="1014" y="88" font-family="Arial,Helvetica,sans-serif" font-size="13" font-weight="600" fill="#FFFFFF" text-anchor="start">SCADA / DCS</text><g transform="translate(984 100) scale(0.59375)" style="color:#FFFFFF;--icon-accent:#FFE600"><circle cx="16" cy="16" r="11" fill="none" stroke="currentColor" stroke-width="2" stroke-linecap="round" stroke-linejoin="round"/><path d="M12 20c-3-4 2-7 2-11 5 4 8 7 5 12-2 4-5 4-7-1z" fill="none" stroke="var(--icon-accent,currentColor)" stroke-width="2" stroke-linecap="round" stroke-linejoin="round"/></g><text x="1014" y="115" font-family="Arial,Helvetica,sans-serif" font-size="13" font-weight="600" fill="#FFFFFF" text-anchor="start">Fire systems</text><g transform="translate(984 127) scale(0.59375)" style="color:#FFFFFF;--icon-accent:#FFE600"><path d="M6 8c0-3 20-3 20 0v16c0 3-20 3-20 0zM6 8c0 3 20 3 20 0M6 16c0 3 20 3 20 0" fill="none" stroke="currentColor" stroke-width="2" stroke-linecap="round" stroke-linejoin="round"/><path d="M10 12h12M10 18h12" fill="none" stroke="var(--icon-accent,currentColor)" stroke-width="2" stroke-linecap="round" stroke-linejoin="round"/></g><text x="1014" y="142" font-family="Arial,Helvetica,sans-serif" font-size="13" font-weight="600" fill="#FFFFFF" text-anchor="start">ERP</text><g transform="translate(984 154) scale(0.59375)" style="color:#FFFFFF;--icon-accent:#FFE600"><circle cx="11" cy="10" r="4" fill="none" stroke="currentColor" stroke-width="2" stroke-linecap="round" stroke-linejoin="round"/><circle cx="22" cy="12" r="3" fill="none" stroke="currentColor" stroke-width="2" stroke-linecap="round" stroke-linejoin="round"/><path d="M4 25c1-7 13-7 14 0M17 25c1-5 9-5 11 0" fill="none" stroke="var(--icon-accent,currentColor)" stroke-width="2" stroke-linecap="round" stroke-linejoin="round"/></g><text x="1014" y="169" font-family="Arial,Helvetica,sans-serif" font-size="13" font-weight="600" fill="#FFFFFF" text-anchor="start">HR / contractor</text><text x="1014" y="183" font-family="Arial,Helvetica,sans-serif" font-size="13" font-weight="600" fill="#FFFFFF" text-anchor="start">systems</text><g transform="translate(984 181) scale(0.59375)" style="color:#FFFFFF;--icon-accent:#FFE600"><rect x="4" y="5" width="18" height="22" rx="2" fill="none" stroke="currentColor" stroke-width="2" stroke-linecap="round" stroke-linejoin="round"/><path d="M9 11h8M9 16h6" fill="none" stroke="currentColor" stroke-width="2" stroke-linecap="round" stroke-linejoin="round"/><path d="M20 25l7-7M22 15a4 4 0 005 5" fill="none" stroke="var(--icon-accent,currentColor)" stroke-width="2" stroke-linecap="round" stroke-linejoin="round"/></g><text x="1014" y="196" font-family="Arial,Helvetica,sans-serif" font-size="13" font-weight="600" fill="#FFFFFF" text-anchor="start">CMMS</text><g transform="translate(984 208) scale(0.59375)" style="color:#FFFFFF;--icon-accent:#FFE600"><rect x="4" y="5" width="24" height="17" rx="2" fill="none" stroke="currentColor" stroke-width="2" stroke-linecap="round" stroke-linejoin="round"/><line x1="10" y1="27" x2="22" y2="27" fill="none" stroke="currentColor" stroke-width="2" stroke-linecap="round" stroke-linejoin="round"/><line x1="16" y1="22" x2="16" y2="27" fill="none" stroke="currentColor" stroke-width="2" stroke-linecap="round" stroke-linejoin="round"/><path d="M16 8l7 3v4c0 5-3 8-7 10-4-2-7-5-7-10v-4z" fill="none" stroke="var(--icon-accent,currentColor)" stroke-width="2" stroke-linecap="round" stroke-linejoin="round"/></g><text x="1014" y="223" font-family="Arial,Helvetica,sans-serif" font-size="13" font-weight="600" fill="#FFFFFF" text-anchor="start">Cyber SOC</text><text x="984" y="244" font-family="Arial,Helvetica,sans-serif" font-size="10" font-weight="700" fill="#FFE600" text-anchor="start">EXTERNAL AGENCIES</text><g transform="translate(984 253) scale(0.59375)" style="color:#FFFFFF;--icon-accent:#FFE600"><path d="M16 3l10 4v7c0 7-4.7 12.1-10 15-5.3-2.9-10-8-10-15V7z" fill="none" stroke="currentColor" stroke-width="2" stroke-linecap="round" stroke-linejoin="round"/><circle cx="16" cy="12" r="3" fill="none" stroke="currentColor" stroke-width="2" stroke-linecap="round" stroke-linejoin="round"/><path d="M11 21c1-5 9-5 10 0" fill="none" stroke="var(--icon-accent,currentColor)" stroke-width="2" stroke-linecap="round" stroke-linejoin="round"/></g><text x="1014" y="268" font-family="Arial,Helvetica,sans-serif" font-size="13" font-weight="600" fill="#FFFFFF" text-anchor="start">Plant security / CISF</text><g transform="translate(984 283) scale(0.59375)" style="color:#FFFFFF;--icon-accent:#FFE600"><path d="M4 10h17v13H4zM21 15h4l3 4v4h-7zM8 23a3 3 0 006 0M22 23a3 3 0 006 0" fill="none" stroke="currentColor" stroke-width="2" stroke-linecap="round" stroke-linejoin="round"/><path d="M7 7h9" fill="none" stroke="var(--icon-accent,currentColor)" stroke-width="2" stroke-linecap="round" stroke-linejoin="round"/><path d="M10 6h8l2 4H8z" fill="none" stroke="var(--icon-accent,currentColor)" stroke-width="2" stroke-linecap="round" stroke-linejoin="round"/></g><text x="1014" y="298" font-family="Arial,Helvetica,sans-serif" font-size="13" font-weight="600" fill="#FFFFFF" text-anchor="start">Police / emergency</text><text x="1014" y="312" font-family="Arial,Helvetica,sans-serif" font-size="13" font-weight="600" fill="#FFFFFF" text-anchor="start">services</text><g transform="translate(984 313) scale(0.59375)" style="color:#FFFFFF;--icon-accent:#FFE600"><path d="M7 23h18M9 23v-6a7 7 0 0114 0v6M7 17h18" fill="none" stroke="currentColor" stroke-width="2" stroke-linecap="round" stroke-linejoin="round"/><path d="M14 13c-3-4 2-6 2-10 5 4 7 7 4 11" fill="none" stroke="var(--icon-accent,currentColor)" stroke-width="2" stroke-linecap="round" stroke-linejoin="round"/></g><text x="1014" y="328" font-family="Arial,Helvetica,sans-serif" font-size="13" font-weight="600" fill="#FFFFFF" text-anchor="start">Fire services</text><g transform="translate(984 343) scale(0.59375)" style="color:#FFFFFF;--icon-accent:#FFE600"><path d="M3 12h26L16 4zM6 12v13M12 12v13M20 12v13M26 12v13M3 25h26M2 29h28" fill="none" stroke="currentColor" stroke-width="2" stroke-linecap="round" stroke-linejoin="round"/></g><text x="1014" y="358" font-family="Arial,Helvetica,sans-serif" font-size="13" font-weight="600" fill="#FFFFFF" text-anchor="start">State / district</text><text x="1014" y="372" font-family="Arial,Helvetica,sans-serif" font-size="13" font-weight="600" fill="#FFFFFF" text-anchor="start">authorities</text><g transform="translate(984 373) scale(0.59375)" style="color:#FFFFFF;--icon-accent:#FFE600"><path d="M16 3l10 4v7c0 7-4.7 12.1-10 15-5.3-2.9-10-8-10-15V7z" fill="none" stroke="currentColor" stroke-width="2" stroke-linecap="round" stroke-linejoin="round"/><path d="M10 16h12M16 10v12M11 11l10 10M21 11L11 21" fill="none" stroke="var(--icon-accent,currentColor)" stroke-width="2" stroke-linecap="round" stroke-linejoin="round"/></g><text x="1014" y="388" font-family="Arial,Helvetica,sans-serif" font-size="13" font-weight="600" fill="#FFFFFF" text-anchor="start">CERT-In / cyber</text><text x="1014" y="402" font-family="Arial,Helvetica,sans-serif" font-size="13" font-weight="600" fill="#FFFFFF" text-anchor="start">agencies</text><g transform="translate(984 403) scale(0.59375)" style="color:#FFFFFF;--icon-accent:#FFE600"><rect x="5" y="4" width="20" height="24" rx="2" fill="none" stroke="currentColor" stroke-width="2" stroke-linecap="round" stroke-linejoin="round"/><path d="M10 10h10M10 15h10M10 20h6" fill="none" stroke="currentColor" stroke-width="2" stroke-linecap="round" stroke-linejoin="round"/><circle cx="23" cy="23" r="4" fill="none" stroke="var(--icon-accent,currentColor)" stroke-width="2" stroke-linecap="round" stroke-linejoin="round"/></g><text x="1014" y="418" font-family="Arial,Helvetica,sans-serif" font-size="13" font-weight="600" fill="#FFFFFF" text-anchor="start">Regulatory interfaces</text><rect x="206" y="0" width="748" height="460" rx="8" fill="#F2F2F2" stroke="#C8C8D0"/><rect x="220" y="12" width="154" height="29" rx="14" fill="#FFFFFF" stroke="#B8B8C1"/><text x="297" y="31" font-family="Arial,Helvetica,sans-serif" font-size="12.5" font-weight="700" fill="#1A1A24" text-anchor="middle">← Architecture overview</text><rect x="595" y="12" width="56" height="29" rx="4" fill="#E5E5EC" stroke="#B8B8C1"/><text x="623" y="31" font-family="Arial,Helvetica,sans-serif" font-size="12.5" font-weight="500" fill="#1A1A24" text-anchor="middle">01</text><rect x="661" y="12" width="56" height="29" rx="4" fill="#E5E5EC" stroke="#B8B8C1"/><text x="689" y="31" font-family="Arial,Helvetica,sans-serif" font-size="12.5" font-weight="500" fill="#1A1A24" text-anchor="middle">02</text><rect x="727" y="12" width="56" height="29" rx="4" fill="#FFE600" stroke="#1A1A24"/><text x="755" y="31" font-family="Arial,Helvetica,sans-serif" font-size="12.5" font-weight="700" fill="#1A1A24" text-anchor="middle">03</text><rect x="793" y="12" width="56" height="29" rx="4" fill="#E5E5EC" stroke="#B8B8C1"/><text x="821" y="31" font-family="Arial,Helvetica,sans-serif" font-size="12.5" font-weight="500" fill="#1A1A24" text-anchor="middle">04</text><rect x="859" y="12" width="56" height="29" rx="4" fill="#E5E5EC" stroke="#B8B8C1"/><text x="887" y="31" font-family="Arial,Helvetica,sans-serif" font-size="12.5" font-weight="500" fill="#1A1A24" text-anchor="middle">05</text><circle cx="242" cy="70" r="24" fill="#1A1A24"/><g transform="translate(225 53) scale(1.0625)" style="color:#FFFFFF;--icon-accent:#FFE600"><circle cx="16" cy="16" r="5" fill="none" stroke="var(--icon-accent,currentColor)" stroke-width="2" stroke-linecap="round" stroke-linejoin="round"/><circle cx="5" cy="7" r="3" fill="none" stroke="currentColor" stroke-width="2" stroke-linecap="round" stroke-linejoin="round"/><circle cx="27" cy="7" r="3" fill="none" stroke="currentColor" stroke-width="2" stroke-linecap="round" stroke-linejoin="round"/><circle cx="5" cy="25" r="3" fill="none" stroke="currentColor" stroke-width="2" stroke-linecap="round" stroke-linejoin="round"/><circle cx="27" cy="25" r="3" fill="none" stroke="currentColor" stroke-width="2" stroke-linecap="round" stroke-linejoin="round"/><path d="M8 9l5 4M24 9l-5 4M8 23l5-4M24 23l-5-4" fill="none" stroke="currentColor" stroke-width="2" stroke-linecap="round" stroke-linejoin="round"/></g><text x="277" y="63" font-family="Arial,Helvetica,sans-serif" font-size="11" font-weight="700" fill="#494965" text-anchor="start">LAYER 03</text><text x="277" y="84" font-family="Arial,Helvetica,sans-serif" font-size="22" font-weight="700" fill="#1A1A24" text-anchor="start">Security intelligence &amp; platform</text><text x="936" y="80" font-family="Arial,Helvetica,sans-serif" font-size="15" font-weight="700" fill="#494965" text-anchor="end">Correlate · Analyse · Understand</text><g data-capability="VMS" data-x="220" data-y="103" data-w="232" data-h="94"><rect x="220" y="103" width="232" height="94" rx="5" fill="#FFFFFF" stroke="#D4D4DA"/><g transform="translate(232 115) scale(0.8125)" style="color:#1A1A24;--icon-accent:#FFE600"><rect x="4" y="5" width="24" height="17" rx="2" fill="none" stroke="currentColor" stroke-width="2" stroke-linecap="round" stroke-linejoin="round"/><line x1="10" y1="27" x2="22" y2="27" fill="none" stroke="currentColor" stroke-width="2" stroke-linecap="round" stroke-linejoin="round"/><line x1="16" y1="22" x2="16" y2="27" fill="none" stroke="currentColor" stroke-width="2" stroke-linecap="round" stroke-linejoin="round"/><rect x="7" y="8" width="7" height="5" rx="1" fill="none" stroke="currentColor" stroke-width="2" stroke-linecap="round" stroke-linejoin="round"/><rect x="16" y="8" width="9" height="5" rx="1" fill="none" stroke="currentColor" stroke-width="2" stroke-linecap="round" stroke-linejoin="round"/><rect x="7" y="15" width="18" height="4" rx="1" fill="none" stroke="currentColor" stroke-width="2" stroke-linecap="round" stroke-linejoin="round"/><path d="M8 20h16" fill="none" stroke="var(--icon-accent,currentColor)" stroke-width="2" stroke-linecap="round" stroke-linejoin="round"/></g><text x="268" y="127" font-family="Arial,Helvetica,sans-serif" font-size="15" font-weight="700" fill="#1A1A24" text-anchor="start">VMS</text><text x="232" y="151" font-family="Arial,Helvetica,sans-serif" font-size="13" font-weight="400" fill="#494965" text-anchor="start">Live view, playback and</text><text x="232" y="167" font-family="Arial,Helvetica,sans-serif" font-size="13" font-weight="400" fill="#494965" text-anchor="start">recording policy across all</text><text x="232" y="183" font-family="Arial,Helvetica,sans-serif" font-size="13" font-weight="400" fill="#494965" text-anchor="start">sites.</text></g><g data-capability="AI video analytics" data-x="464" data-y="103" data-w="232" data-h="94"><rect x="464" y="103" width="232" height="94" rx="5" fill="#FFFFFF" stroke="#D4D4DA"/><g transform="translate(476 115) scale(0.8125)" style="color:#1A1A24;--icon-accent:#FFE600"><rect x="3" y="6" width="26" height="20" rx="2" fill="none" stroke="currentColor" stroke-width="2" stroke-linecap="round" stroke-linejoin="round"/><rect x="9" y="10" width="8" height="10" rx="1" fill="none" stroke="var(--icon-accent,currentColor)" stroke-width="2" stroke-linecap="round" stroke-linejoin="round"/><circle cx="13" cy="13" r="1" fill="none" stroke="var(--icon-accent,currentColor)" stroke-width="2" stroke-linecap="round" stroke-linejoin="round"/><path d="M20 10h5M20 15h5M20 20h5" fill="none" stroke="currentColor" stroke-width="2" stroke-linecap="round" stroke-linejoin="round"/></g><text x="512" y="127" font-family="Arial,Helvetica,sans-serif" font-size="15" font-weight="700" fill="#1A1A24" text-anchor="start">AI video analytics</text><text x="476" y="151" font-family="Arial,Helvetica,sans-serif" font-size="13" font-weight="400" fill="#494965" text-anchor="start">Intrusion, loitering, PPE,</text><text x="476" y="167" font-family="Arial,Helvetica,sans-serif" font-size="13" font-weight="400" fill="#494965" text-anchor="start">object and behaviour</text><text x="476" y="183" font-family="Arial,Helvetica,sans-serif" font-size="13" font-weight="400" fill="#494965" text-anchor="start">detection.</text></g><g data-capability="PSIM / ICCC" data-x="708" data-y="103" data-w="232" data-h="94"><rect x="708" y="103" width="232" height="94" rx="5" fill="#FFFFFF" stroke="#D4D4DA"/><g transform="translate(720 115) scale(0.8125)" style="color:#1A1A24;--icon-accent:#FFE600"><circle cx="16" cy="16" r="5" fill="none" stroke="var(--icon-accent,currentColor)" stroke-width="2" stroke-linecap="round" stroke-linejoin="round"/><circle cx="5" cy="7" r="3" fill="none" stroke="currentColor" stroke-width="2" stroke-linecap="round" stroke-linejoin="round"/><circle cx="27" cy="7" r="3" fill="none" stroke="currentColor" stroke-width="2" stroke-linecap="round" stroke-linejoin="round"/><circle cx="5" cy="25" r="3" fill="none" stroke="currentColor" stroke-width="2" stroke-linecap="round" stroke-linejoin="round"/><circle cx="27" cy="25" r="3" fill="none" stroke="currentColor" stroke-width="2" stroke-linecap="round" stroke-linejoin="round"/><path d="M8 9l5 4M24 9l-5 4M8 23l5-4M24 23l-5-4" fill="none" stroke="currentColor" stroke-width="2" stroke-linecap="round" stroke-linejoin="round"/></g><text x="756" y="127" font-family="Arial,Helvetica,sans-serif" font-size="15" font-weight="700" fill="#1A1A24" text-anchor="start">PSIM / ICCC</text><text x="720" y="151" font-family="Arial,Helvetica,sans-serif" font-size="13" font-weight="400" fill="#494965" text-anchor="start">Single operating picture and</text><text x="720" y="167" font-family="Arial,Helvetica,sans-serif" font-size="13" font-weight="400" fill="#494965" text-anchor="start">cross-system orchestration.</text></g><g data-capability="Access &amp; visitor management" data-x="220" data-y="204" data-w="232" data-h="94"><rect x="220" y="204" width="232" height="94" rx="5" fill="#FFFFFF" stroke="#D4D4DA"/><g transform="translate(232 216) scale(0.8125)" style="color:#1A1A24;--icon-accent:#FFE600"><rect x="4" y="6" width="14" height="20" rx="2" fill="none" stroke="currentColor" stroke-width="2" stroke-linecap="round" stroke-linejoin="round"/><circle cx="11" cy="12" r="3" fill="none" stroke="currentColor" stroke-width="2" stroke-linecap="round" stroke-linejoin="round"/><path d="M7 20c2-4 6-4 8 0" fill="none" stroke="currentColor" stroke-width="2" stroke-linecap="round" stroke-linejoin="round"/><path d="M22 9v14M19 12l3-3 3 3" fill="none" stroke="var(--icon-accent,currentColor)" stroke-width="2" stroke-linecap="round" stroke-linejoin="round"/></g><text x="268" y="228" font-family="Arial,Helvetica,sans-serif" font-size="15" font-weight="700" fill="#1A1A24" text-anchor="start">Access &amp; visitor</text><text x="268" y="244" font-family="Arial,Helvetica,sans-serif" font-size="15" font-weight="700" fill="#1A1A24" text-anchor="start">management</text><text x="232" y="261" font-family="Arial,Helvetica,sans-serif" font-size="13" font-weight="400" fill="#494965" text-anchor="start">Passes, contractor validity</text><text x="232" y="277" font-family="Arial,Helvetica,sans-serif" font-size="13" font-weight="400" fill="#494965" text-anchor="start">and zone authorisation.</text></g><g data-capability="Alarm correlation" data-x="464" data-y="204" data-w="232" data-h="94"><rect x="464" y="204" width="232" height="94" rx="5" fill="#FFFFFF" stroke="#D4D4DA"/><g transform="translate(476 216) scale(0.8125)" style="color:#1A1A24;--icon-accent:#FFE600"><circle cx="5" cy="8" r="3" fill="none" stroke="currentColor" stroke-width="2" stroke-linecap="round" stroke-linejoin="round"/><circle cx="5" cy="16" r="3" fill="none" stroke="currentColor" stroke-width="2" stroke-linecap="round" stroke-linejoin="round"/><circle cx="5" cy="24" r="3" fill="none" stroke="currentColor" stroke-width="2" stroke-linecap="round" stroke-linejoin="round"/><path d="M8 8l9 8M8 16h9M8 24l9-8" fill="none" stroke="currentColor" stroke-width="2" stroke-linecap="round" stroke-linejoin="round"/><rect x="18" y="11" width="10" height="10" rx="2" fill="none" stroke="var(--icon-accent,currentColor)" stroke-width="2" stroke-linecap="round" stroke-linejoin="round"/></g><text x="512" y="228" font-family="Arial,Helvetica,sans-serif" font-size="15" font-weight="700" fill="#1A1A24" text-anchor="start">Alarm correlation</text><text x="476" y="252" font-family="Arial,Helvetica,sans-serif" font-size="13" font-weight="400" fill="#494965" text-anchor="start">Rules that fuse sensor,</text><text x="476" y="268" font-family="Arial,Helvetica,sans-serif" font-size="13" font-weight="400" fill="#494965" text-anchor="start">access and video into one</text><text x="476" y="284" font-family="Arial,Helvetica,sans-serif" font-size="13" font-weight="400" fill="#494965" text-anchor="start">alarm.</text></g><g data-capability="GIS" data-x="708" data-y="204" data-w="232" data-h="94"><rect x="708" y="204" width="232" height="94" rx="5" fill="#FFFFFF" stroke="#D4D4DA"/><g transform="translate(720 216) scale(0.8125)" style="color:#1A1A24;--icon-accent:#FFE600"><path d="M4 7l8-3 8 3 8-3v21l-8 3-8-3-8 3zM12 4v21M20 7v21" fill="none" stroke="currentColor" stroke-width="2" stroke-linecap="round" stroke-linejoin="round"/><path d="M20 9c-5 0-5 7 0 11 5-4 5-11 0-11z" fill="none" stroke="var(--icon-accent,currentColor)" stroke-width="2" stroke-linecap="round" stroke-linejoin="round"/></g><text x="756" y="228" font-family="Arial,Helvetica,sans-serif" font-size="15" font-weight="700" fill="#1A1A24" text-anchor="start">GIS</text><text x="720" y="252" font-family="Arial,Helvetica,sans-serif" font-size="13" font-weight="400" fill="#494965" text-anchor="start">Every event pinned to a</text><text x="720" y="268" font-family="Arial,Helvetica,sans-serif" font-size="13" font-weight="400" fill="#494965" text-anchor="start">zone, asset and response</text><text x="720" y="284" font-family="Arial,Helvetica,sans-serif" font-size="13" font-weight="400" fill="#494965" text-anchor="start">route.</text></g><g data-capability="Drone / airspace awareness" data-x="220" data-y="305" data-w="232" data-h="94"><rect x="220" y="305" width="232" height="94" rx="5" fill="#FFFFFF" stroke="#D4D4DA"/><g transform="translate(232 317) scale(0.8125)" style="color:#1A1A24;--icon-accent:#FFE600"><circle cx="16" cy="16" r="12" fill="none" stroke="currentColor" stroke-width="2" stroke-linecap="round" stroke-linejoin="round"/><path d="M16 4v24M4 16h24M8 8l16 16M24 8L8 24" fill="none" stroke="currentColor" stroke-width="2" stroke-linecap="round" stroke-linejoin="round"/><path d="M20 9l5 2-4 2z" fill="none" stroke="var(--icon-accent,currentColor)" stroke-width="2" stroke-linecap="round" stroke-linejoin="round"/></g><text x="268" y="329" font-family="Arial,Helvetica,sans-serif" font-size="15" font-weight="700" fill="#1A1A24" text-anchor="start">Drone / airspace</text><text x="268" y="345" font-family="Arial,Helvetica,sans-serif" font-size="15" font-weight="700" fill="#1A1A24" text-anchor="start">awareness</text><text x="232" y="362" font-family="Arial,Helvetica,sans-serif" font-size="13" font-weight="400" fill="#494965" text-anchor="start">Fused air picture with track</text><text x="232" y="378" font-family="Arial,Helvetica,sans-serif" font-size="13" font-weight="400" fill="#494965" text-anchor="start">history and no-fly overlays.</text></g><g data-capability="Evidence management" data-x="464" data-y="305" data-w="232" data-h="94"><rect x="464" y="305" width="232" height="94" rx="5" fill="#FFFFFF" stroke="#D4D4DA"/><g transform="translate(476 317) scale(0.8125)" style="color:#1A1A24;--icon-accent:#FFE600"><rect x="6" y="4" width="20" height="24" rx="2" fill="none" stroke="currentColor" stroke-width="2" stroke-linecap="round" stroke-linejoin="round"/><path d="M11 4v5h10V4M11 15h10M11 20h7" fill="none" stroke="currentColor" stroke-width="2" stroke-linecap="round" stroke-linejoin="round"/><path d="M20 23l2 2 5-6" fill="none" stroke="var(--icon-accent,currentColor)" stroke-width="2" stroke-linecap="round" stroke-linejoin="round"/></g><text x="512" y="329" font-family="Arial,Helvetica,sans-serif" font-size="15" font-weight="700" fill="#1A1A24" text-anchor="start">Evidence management</text><text x="476" y="353" font-family="Arial,Helvetica,sans-serif" font-size="13" font-weight="400" fill="#494965" text-anchor="start">Locked, chain-of-custody</text><text x="476" y="369" font-family="Arial,Helvetica,sans-serif" font-size="13" font-weight="400" fill="#494965" text-anchor="start">video and event packages.</text></g><g data-capability="Storage &amp; retention" data-x="708" data-y="305" data-w="232" data-h="94"><rect x="708" y="305" width="232" height="94" rx="5" fill="#FFFFFF" stroke="#D4D4DA"/><g transform="translate(720 317) scale(0.8125)" style="color:#1A1A24;--icon-accent:#FFE600"><path d="M6 8c0-3 20-3 20 0v16c0 3-20 3-20 0zM6 8c0 3 20 3 20 0M6 16c0 3 20 3 20 0" fill="none" stroke="currentColor" stroke-width="2" stroke-linecap="round" stroke-linejoin="round"/><circle cx="23" cy="22" r="6" fill="none" stroke="var(--icon-accent,currentColor)" stroke-width="2" stroke-linecap="round" stroke-linejoin="round"/><path d="M23 19v3l2 2" fill="none" stroke="var(--icon-accent,currentColor)" stroke-width="2" stroke-linecap="round" stroke-linejoin="round"/></g><text x="756" y="329" font-family="Arial,Helvetica,sans-serif" font-size="15" font-weight="700" fill="#1A1A24" text-anchor="start">Storage &amp; retention</text><text x="720" y="353" font-family="Arial,Helvetica,sans-serif" font-size="13" font-weight="400" fill="#494965" text-anchor="start">Tiered hot, archive and</text><text x="720" y="369" font-family="Arial,Helvetica,sans-serif" font-size="13" font-weight="400" fill="#494965" text-anchor="start">evidence retention by</text><text x="720" y="385" font-family="Arial,Helvetica,sans-serif" font-size="13" font-weight="400" fill="#494965" text-anchor="start">policy.</text></g><rect x="220" y="417" width="720" height="31" rx="4" fill="#1A1A24"/><rect x="220" y="417" width="7" height="31" fill="#FFE600"/><g transform="translate(237 422) scale(0.65625)" style="color:#FFFFFF;--icon-accent:#FFE600"><circle cx="8" cy="10" r="3" fill="none" stroke="currentColor" stroke-width="2" stroke-linecap="round" stroke-linejoin="round"/><circle cx="8" cy="22" r="3" fill="none" stroke="currentColor" stroke-width="2" stroke-linecap="round" stroke-linejoin="round"/><circle cx="24" cy="16" r="4" fill="none" stroke="var(--icon-accent,currentColor)" stroke-width="2" stroke-linecap="round" stroke-linejoin="round"/><path d="M11 10l9 5M11 22l9-5" fill="none" stroke="currentColor" stroke-width="2" stroke-linecap="round" stroke-linejoin="round"/></g><text x="266" y="438" font-family="Arial,Helvetica,sans-serif" font-size="15" font-weight="700" fill="#FFFFFF" text-anchor="start">Correlated events · Alarms · Evidence · Situational awareness</text></svg>