<svg xmlns="http://www.w3.org/2000/svg" viewBox="0 0 32 32" width="32" height="32" style="color:#1A1A24;--icon-accent:#1A1A24"><path d="M6 8c0-3 20-3 20 0v16c0 3-20 3-20 0zM6 8c0 3 20 3 20 0M6 16c0 3 20 3 20 0" fill="none" stroke="currentColor" stroke-width="2" stroke-linecap="round" stroke-linejoin="round"/><path d="M10 12a8 8 0 0113 2M23 14v-5M23 14h-5M22 21a8 8 0 01-13-2M9 19v5M9 19h5" fill="none" stroke="var(--icon-accent,currentColor)" stroke-width="2" stroke-linecap="round" stroke-linejoin="round"/></svg>
